<?xml version="1.0" encoding="utf-8"?>
<!-- Generator: Adobe Illustrator 21.0.0, SVG Export Plug-In . SVG Version: 6.00 Build 0)  -->
<svg version="1.1" id="Layer_1" xmlns="http://www.w3.org/2000/svg" xmlns:xlink="http://www.w3.org/1999/xlink" x="0px" y="0px"
	 viewBox="0 0 756.8 132.6" style="enable-background:new 0 0 756.8 132.6;" xml:space="preserve">
<style type="text/css">
	.st0{fill:#ED1C24;}
</style>
<path class="st0" d="M111.2,4.9c0,0-9.3-3.9-10.6-4.4c-1.3-0.5-2.6-0.6-4-0.3s-2.4,1.1-2.9,1.6C93.1,2.3,73,22.4,73,22.4
	S53.1,2.5,52.5,1.9s-1.4-1.3-3-1.7c-1.7-0.4-3.1-0.1-3.9,0.3C44.7,0.9,36.1,4.4,35,4.9c-1.2,0.5-2.3,1.4-3,2.6
	c-0.6,1-0.9,2.1-0.9,3.3c0-1.2,0,27.9,0,27.9l18.5,10.7V25.1l8.6,8.6c0.6,0.6,1.4,1.1,2.2,1.4c0.7,0.2,1.2,0.4,2.2,0.4s21,0,21,0
	c0.7,0,1.5-0.2,2.1-0.4c0.8-0.3,1.6-0.8,2.4-1.6c0.8-0.8,8.5-8.5,8.5-8.5v24.3l18.5-10.7c0,0,0-25,0-27.8
	C115.1,8.1,113.5,5.9,111.2,4.9L111.2,4.9z"/>
<path class="st0" d="M0.1,65.2c0,0,1.3,10,1.5,11.4s0.7,2.5,1.7,3.6s2.1,1.5,2.9,1.7c0.7,0.2,28.2,7.6,28.2,7.6s-7.3,27.2-7.5,28
	s-0.4,1.8,0,3.5c0.5,1.6,1.5,2.7,2.2,3.2c0.7,0.6,8.2,6.2,9.1,7c1,0.8,2.3,1.3,3.7,1.3c1.1,0,2.3-0.2,3.3-0.8
	c-1,0.6,24.2-14,24.2-14V96.3l-21.1,12.2l3.2-11.8c0.2-0.9,0.3-1.8,0.1-2.7c-0.1-0.7-0.2-1.2-0.8-2.1C50.3,91,40.3,73.7,40.3,73.7
	c-0.4-0.6-0.9-1.2-1.4-1.7c-0.7-0.5-1.4-1-2.6-1.3c-1.1-0.3-11.6-3.1-11.6-3.1l21.1-12.2L27.3,44.7c0,0-21.6,12.5-24.1,13.9
	C0.9,60.2-0.3,62.7,0.1,65.2L0.1,65.2z"/>
<path class="st0" d="M107.8,131.3c0,0,8-6.2,9.1-7c1.1-0.9,1.8-1.9,2.3-3.3c0.4-1.4,0.3-2.6,0.1-3.4c-0.2-0.7-7.5-28.2-7.5-28.2
	s27.2-7.3,28-7.5s1.8-0.5,3-1.8c1.2-1.2,1.6-2.6,1.7-3.6c0.1-0.9,1.3-10.2,1.5-11.4c0.2-1.2-0.1-2.7-0.7-3.9c-0.5-1-1.3-1.8-2.4-2.4
	c1,0.6-24.2-14-24.2-14l-18.5,10.7l21.1,12.2l-11.8,3.2c-0.9,0.2-1.7,0.7-2.4,1.2c-0.5,0.5-0.9,0.8-1.4,1.7S95.2,92,95.2,92
	c-0.4,0.7-0.6,1.3-0.7,2c-0.1,0.8-0.1,1.7,0.2,2.9c0.3,1.1,3.1,11.6,3.1,11.6L76.7,96.3v21.4c0,0,21.6,12.5,24.1,13.9
	C103.1,133.1,105.8,132.8,107.8,131.3L107.8,131.3z"/>
<polygon points="272.3,33.2 272.3,105.3 330,105.3 330,92.8 288.1,92.8 288.1,75 330,75 330,62.5 288.1,62.4 288.1,45.7 330,45.7 
	330,33.2 "/>
<polygon points="566.7,33.2 566.7,105.3 624.5,105.3 624.5,92.8 582.6,92.8 582.6,75 624.5,75 624.5,62.5 582.6,62.4 582.6,45.7 
	624.5,45.7 624.5,33.2 "/>
<polygon points="402.1,105.3 402.1,33.1 417.5,33.1 417.5,105.3 "/>
<polygon points="203,33.1 221,89.4 239.9,33.1 262.4,33.1 262.4,105.3 247.7,105.3 247.7,51.1 228.8,105.3 213,105.3 195.2,51.1 
	195.2,105.3 180.5,105.3 180.5,33.1 "/>
<polygon points="358,45.9 334.9,45.9 334.9,33.1 397.2,33.1 397.2,45.9 373.3,45.9 373.3,105.3 358,105.3 "/>
<polygon points="485.9,33.1 485.9,105.3 470.5,105.3 470.5,75.4 442.7,75.4 442.7,105.3 427.4,105.3 427.4,33.1 442.7,33.1 
	442.7,62.5 470.5,62.5 470.5,33.1 "/>
<path d="M495.3,105.3V33.1h40.8c6.4,0,11,0.8,13.9,2.1c3.4,1.7,5.9,4.5,7.6,8.4c1.3,2.7,1.8,5.5,1.8,8.4c0,3.7-1,7.2-3,10.5
	c-1.9,3.1-4.4,5.5-7.4,6.7c7,3.3,10.5,8.9,10.5,17c0,4.8-1.1,8.6-3.4,11.9c-1.9,2.7-4.4,4.7-7.4,5.7s-7.6,1.5-13.5,1.5L495.3,105.3
	L495.3,105.3z M510.7,62.8h21c2.2,0,3.8-0.1,4.7-0.3c1-0.2,2-0.8,2.9-1.4c2.3-1.7,3.3-4.1,3.3-7.1c0-2.9-1.1-5.1-3.1-6.5
	c-1.6-1-4.1-1.5-7.5-1.5h-21.3L510.7,62.8L510.7,62.8z M510.7,92.5h20.9c2.2,0,3.8-0.1,4.7-0.3c1.1-0.2,2-0.8,2.9-1.4
	c2.3-1.8,3.3-4.1,3.3-7.1c0-2.9-1.1-5.1-3.1-6.5c-1.6-1-4.1-1.5-7.5-1.5h-21.3L510.7,92.5L510.7,92.5z"/>
<path d="M689.6,92.5v12.8h-25.2c-4.7,0-8.4-0.2-10.9-0.7c-8.9-1.7-15.2-6.7-18.9-14.9c-2.5-5.4-3.8-12.2-3.8-20.3
	c0-9.6,1.9-17.6,5.7-23.6c5.4-8.7,14.1-12.6,28.6-12.6h24.5V46h-22.8c-6.8,0-11.9,1.8-15.1,5.5c-2.6,3-3.9,8.5-3.9,16.5
	c0,10.7,2,17.7,6.2,21c2.9,2.3,7.4,3.5,13.5,3.5L689.6,92.5L689.6,92.5z"/>
<polygon points="717.5,45.9 694.5,45.9 694.5,33.1 756.8,33.1 756.8,45.9 732.8,45.9 732.8,105.3 717.5,105.3 "/>
</svg>
